# xmcd
#
# Track frame offsets:
#	150
#	17478
#	38570
#	57875
#	77743
#	93206
#	108101
#	126719
#	143303
#	162755
#	180123
#	194605
#	211655
#	229460
#	245444
#
# Disc length: 3547 seconds
#
# Revision: 0
# Processed by: cddbd v1.5.2PL0 Copyright (c) Steve Scherf et al.
# Submitted via: audiograbber 1.83.01
#
DISCID=b50dd90f
DTITLE=Sound Choice - Country Hits Vol. 90 SC8409
DYEAR=1900
DGENRE=Karaoke
TTITLE0=Shania Twain - Love Gets Me Everytime
TTITLE1=Lila McCann - I Wanna Fall In Love
TTITLE2=Tracy Lawrence - The Coast Is Clear
TTITLE3=John Anderson - Small Town
TTITLE4=Mindy McCready - What If I Do
TTITLE5=Tracy Lawrence - While You Sleep
TTITLE6=Sherrie Austin - One Solitary Tear
TTITLE7=Neal McCoy - If You Can't Be Good (Be Good At It)
TTITLE8=LeAnn Rimes - On The Side Of Angels
TTITLE9=Paul Brandt - A Little In Love
TTITLE10=Rick Trevino - See Rock City
TTITLE11=John Michael Montgomery - Angel In My Eye
TTITLE12=Alabama - Of Course I'm Alright
TTITLE13=Wynonna - When Love Start's Talkin'
TTITLE14=Alan Jackson - Between The Devil And Me
EXTD=
EXTT0=
EXTT1=
EXTT2=
EXTT3=
EXTT4=
EXTT5=
EXTT6=
EXTT7=
EXTT8=
EXTT9=
EXTT10=
EXTT11=
EXTT12=
EXTT13=
EXTT14=
PLAYORDER=
